<?xml version="1.0" encoding="utf-8"?>
<!-- Generator: Adobe Illustrator 24.0.0, SVG Export Plug-In . SVG Version: 6.00 Build 0)  -->
<svg version="1.1" xmlns="http://www.w3.org/2000/svg" xmlns:xlink="http://www.w3.org/1999/xlink" x="0px" y="0px"
	 viewBox="0 0 64 64" enable-background="new 0 0 64 64" xml:space="preserve">
<g id="Captions">
</g>
<g id="Icons">
	<g>
		<g>
			<path fill="#64C8F0" d="M52,42c3.273,0,6.175,1.588,8,4.025V14c0-1.105-0.895-2-2-2H6c-1.105,0-2,0.895-2,2v36
				c0,1.105,0.895,2,2,2h36C42,46.486,46.486,42,52,42z"/>
		</g>
		<g>
			<path fill="#46AAD2" d="M8,50V14c0-1.105,0.895-2,2-2H6c-1.105,0-2,0.895-2,2v36c0,1.105,0.895,2,2,2h4C8.895,52,8,51.105,8,50z"
				/>
		</g>
		<g>
			<path fill="#FAB400" d="M4,16h56v-2c0-1.105-0.895-2-2-2H6c-1.105,0-2,0.895-2,2V16z"/>
		</g>
		<g>
			<path fill="#DC9600" d="M10,12H6c-1.105,0-2,0.895-2,2v2h4v-2C8,12.895,8.895,12,10,12z"/>
		</g>
		<g>
			<path fill="#F0F0F0" d="M24,46L24,46c-6.627,0-12-5.373-12-12v0c0-6.627,5.373-12,12-12h0c6.627,0,12,5.373,12,12v0
				C36,40.627,30.627,46,24,46z"/>
		</g>
		<g>
			<path fill="#FA6450" d="M30,44c0-3.314-2.686-6-6-6s-6,2.686-6,6v0.381C19.766,45.405,21.812,46,24,46s4.234-0.595,6-1.619V44z"
				/>
		</g>
		<g>
			<path fill="#DC4632" d="M24,38c-3.314,0-6,2.686-6,6v0.381c1.215,0.704,2.563,1.197,4,1.439V44c0-2.611,1.671-4.827,4-5.651
				C25.374,38.127,24.702,38,24,38z"/>
		</g>
		<g>
			<path fill="#F0C8A0" d="M24,38L24,38c-3.314,0-6-2.686-6-6v0c0-3.314,2.686-6,6-6h0c3.314,0,6,2.686,6,6v0
				C30,35.314,27.314,38,24,38z"/>
		</g>
		<g>
			<path fill="#FAB400" d="M18,32L18,32c0-3.314,2.686-6,6-6h0c3.314,0,6,2.686,6,6v0H18z"/>
		</g>
		<g>
			<path fill="#D2AA82" d="M22,32c0-2.611,1.671-4.827,4-5.651C25.374,26.127,24.702,26,24,26c-3.314,0-6,2.686-6,6s2.686,6,6,6
				c0.702,0,1.374-0.127,2-0.349C23.671,36.827,22,34.611,22,32z"/>
		</g>
		<g>
			<path fill="#DC9600" d="M26,26.349C25.374,26.127,24.702,26,24,26c-3.314,0-6,2.686-6,6h4C22,29.389,23.671,27.173,26,26.349z"/>
		</g>
		<g>
			<path fill="#505050" d="M36,8c0-2.209-1.791-4-4-4s-4,1.791-4,4h-4v8h16V8H36z M32,10c-1.105,0-2-0.895-2-2c0-1.105,0.895-2,2-2
				s2,0.895,2,2C34,9.105,33.105,10,32,10z"/>
		</g>
		<g>
			<path fill="#3C3C3C" d="M33,4.141C32.679,4.058,32.347,4,32,4c-2.209,0-4,1.791-4,4h2C30,6.138,31.278,4.587,33,4.141z"/>
		</g>
		<g>
			<rect x="24" y="8" fill="#3C3C3C" width="2" height="8"/>
		</g>
		<g>
			<rect x="40" y="24" fill="#505050" width="14" height="2"/>
		</g>
		<g>
			<rect x="40" y="30" transform="matrix(-1 -1.224647e-16 1.224647e-16 -1 94 62)" fill="#505050" width="14" height="2"/>
		</g>
		<g>
			<rect x="40" y="36" transform="matrix(-1 -1.224647e-16 1.224647e-16 -1 94 74)" fill="#505050" width="14" height="2"/>
		</g>
		<g>
			<path fill="#505050" d="M40,42v2h6.025c1.669-1.25,3.733-2,5.975-2H40z"/>
		</g>
		<g>
			<circle fill="#3CC8B4" cx="52" cy="52" r="8"/>
		</g>
		<g>
			<path fill="#1EAA96" d="M45.983,52c0-4.082,3.059-7.443,7.009-7.932C52.666,44.027,52.336,44,52,44c-4.418,0-8,3.582-8,8
				s3.582,8,8,8c0.336,0,0.666-0.027,0.991-0.068C49.042,59.443,45.983,56.082,45.983,52z"/>
		</g>
		<g>
			<polygon fill="#F0F0F0" points="57,50 51,56 47,52 49,50 51,52 55,48 			"/>
		</g>
	</g>
</g>
</svg>
